<mxfile host="Electron" agent="Mozilla/5.0 (Windows NT 10.0; Win64; x64) AppleWebKit/537.36 (KHTML, like Gecko) draw.io/26.0.4 Chrome/128.0.6613.186 Electron/32.2.5 Safari/537.36" version="26.0.4">
  <diagram id="Ht1M8jgEwFfnCIfOTk4-" name="Page-1">
    <mxGraphModel dx="12432" dy="6807" grid="1" gridSize="10" guides="1" tooltips="1" connect="1" arrows="1" fold="1" page="1" pageScale="1" pageWidth="1169" pageHeight="827" math="0" shadow="0">
      <root>
        <mxCell id="0" />
        <mxCell id="1" parent="0" />
        <mxCell id="ZCW60HN4UCI8_1PRk3wG-36" value="&lt;span style=&quot;font-size: 30px;&quot;&gt;K8s-Architektur v1&lt;/span&gt;" style="whiteSpace=wrap;html=1;rounded=1;arcSize=2;verticalAlign=top;movable=1;resizable=1;rotatable=1;deletable=1;editable=1;locked=0;connectable=1;" parent="1" vertex="1">
          <mxGeometry x="2450" y="-740" width="3745" height="3150" as="geometry" />
        </mxCell>
        <mxCell id="7OVlWc0CsFkuMIYYxnUI-151" value="&lt;font style=&quot;font-size: 12px;&quot;&gt;&lt;b style=&quot;font-size: 12px;&quot;&gt;Node (Repräsentant)&lt;/b&gt;&lt;/font&gt;&lt;div style=&quot;font-size: 12px;&quot;&gt;&lt;font style=&quot;font-size: 12px;&quot;&gt;&lt;span style=&quot;font-size: 12px;&quot;&gt;In Wahrheit können beliebig viele Knoten im Einsatz sein und die Pods werden von K8s auf diese verteilt. Im aktuellem Entwurf ist uns egal auf welchem Koten ein Pod erzeugt wird.&lt;/span&gt;&lt;/font&gt;&lt;/div&gt;" style="whiteSpace=wrap;html=1;fillColor=#d9e5cd;rounded=1;arcSize=1;verticalAlign=top;movable=1;resizable=1;rotatable=1;deletable=1;editable=1;locked=0;connectable=1;fontSize=12;" parent="1" vertex="1">
          <mxGeometry x="3205" y="-515" width="2790" height="1801.25" as="geometry" />
        </mxCell>
        <mxCell id="7OVlWc0CsFkuMIYYxnUI-153" value="CRI (Container Runtime Interface)" style="rounded=1;whiteSpace=wrap;html=1;verticalAlign=top;arcSize=1;movable=1;resizable=1;rotatable=1;deletable=1;editable=1;locked=0;connectable=1;fontSize=12;strokeColor=default;" parent="1" vertex="1">
          <mxGeometry x="3285" y="-333.75" width="2610" height="1533.75" as="geometry" />
        </mxCell>
        <mxCell id="TPNZpiHJa9W8Kg9He1s7-10" value="&lt;font size=&quot;1&quot; style=&quot;&quot;&gt;&lt;b style=&quot;font-size: 16px;&quot;&gt;Job: jmeter_worker (n jobs, one per pod)&lt;/b&gt;&lt;/font&gt;" style="whiteSpace=wrap;html=1;rounded=1;arcSize=2;verticalAlign=top;fontSize=12;movable=1;resizable=1;rotatable=1;deletable=1;editable=1;locked=0;connectable=1;strokeColor=#8F8F8F;align=center;fontFamily=Helvetica;fontColor=default;fillColor=#E6E6E6;" parent="1" vertex="1">
          <mxGeometry x="5088" y="425" width="500" height="655" as="geometry" />
        </mxCell>
        <mxCell id="TPNZpiHJa9W8Kg9He1s7-9" value="&lt;font size=&quot;1&quot; style=&quot;&quot;&gt;&lt;b style=&quot;font-size: 16px;&quot;&gt;Job: jmeter_controller&lt;/b&gt;&lt;/font&gt;" style="whiteSpace=wrap;html=1;rounded=1;arcSize=2;verticalAlign=top;fontSize=12;movable=1;resizable=1;rotatable=1;deletable=1;editable=1;locked=0;connectable=1;strokeColor=#8F8F8F;align=center;fontFamily=Helvetica;fontColor=default;fillColor=#E6E6E6;" parent="1" vertex="1">
          <mxGeometry x="5088" y="70" width="500" height="270" as="geometry" />
        </mxCell>
        <mxCell id="7OVlWc0CsFkuMIYYxnUI-138" value="&lt;font size=&quot;1&quot; style=&quot;&quot;&gt;&lt;b style=&quot;font-size: 16px;&quot;&gt;Deployment: frontend&lt;/b&gt;&lt;/font&gt;" style="whiteSpace=wrap;html=1;rounded=1;arcSize=2;verticalAlign=top;fontSize=12;movable=1;resizable=1;rotatable=1;deletable=1;editable=1;locked=0;connectable=1;strokeColor=#8F8F8F;align=center;fontFamily=Helvetica;fontColor=default;fillColor=#E6E6E6;" parent="1" vertex="1">
          <mxGeometry x="3385" y="-264" width="500" height="280" as="geometry" />
        </mxCell>
        <mxCell id="7OVlWc0CsFkuMIYYxnUI-88" style="rounded=0;orthogonalLoop=1;jettySize=auto;html=1;endArrow=none;endFill=0;dashed=1;dashPattern=8 8;movable=1;resizable=1;rotatable=1;deletable=1;editable=1;locked=0;connectable=1;" parent="1" source="7OVlWc0CsFkuMIYYxnUI-94" target="7OVlWc0CsFkuMIYYxnUI-90" edge="1">
          <mxGeometry relative="1" as="geometry" />
        </mxCell>
        <mxCell id="oH4TG-YbMOmBQOoqMi1V-5" style="edgeStyle=orthogonalEdgeStyle;rounded=0;orthogonalLoop=1;jettySize=auto;html=1;exitX=1;exitY=0.5;exitDx=0;exitDy=0;entryX=0.5;entryY=1;entryDx=0;entryDy=0;movable=1;resizable=1;rotatable=1;deletable=1;editable=1;locked=0;connectable=1;" edge="1" parent="1" source="7OVlWc0CsFkuMIYYxnUI-90" target="oH4TG-YbMOmBQOoqMi1V-4">
          <mxGeometry relative="1" as="geometry" />
        </mxCell>
        <mxCell id="7OVlWc0CsFkuMIYYxnUI-90" value="&lt;b style=&quot;font-size: 16px;&quot;&gt;Manifest: ingress&lt;/b&gt;" style="whiteSpace=wrap;html=1;fillColor=#d9e5cd;strokeColor=default;rounded=1;arcSize=3;verticalAlign=top;movable=1;resizable=1;rotatable=1;deletable=1;editable=1;locked=0;connectable=1;" parent="1" vertex="1">
          <mxGeometry x="2655" y="1650" width="400" height="100" as="geometry" />
        </mxCell>
        <mxCell id="7OVlWc0CsFkuMIYYxnUI-94" value="Ermöglicht Zugriff von außerhalb des Clusters mittels http" style="shape=note2;boundedLbl=1;whiteSpace=wrap;html=1;size=25;verticalAlign=top;align=center;movable=1;resizable=1;rotatable=1;deletable=1;editable=1;locked=0;connectable=1;" parent="1" vertex="1">
          <mxGeometry x="3135" y="1495" width="280" height="130" as="geometry" />
        </mxCell>
        <mxCell id="7OVlWc0CsFkuMIYYxnUI-95" value="&lt;font style=&quot;font-size: 16px;&quot;&gt;{Prefix}/{Path}&lt;/font&gt;" style="whiteSpace=wrap;html=1;fillColor=#9ab0ab;strokeColor=none;rotation=0;movable=1;resizable=1;rotatable=1;deletable=1;editable=1;locked=0;connectable=1;" parent="1" vertex="1">
          <mxGeometry x="2735" y="1697.5" width="240" height="30" as="geometry" />
        </mxCell>
        <mxCell id="1kscTgb3eFn9fxUTIaNH-13" value="&lt;font size=&quot;1&quot; style=&quot;&quot;&gt;&lt;b style=&quot;font-size: 16px;&quot;&gt;Backend&lt;/b&gt;&lt;/font&gt;" style="whiteSpace=wrap;html=1;rounded=1;arcSize=2;verticalAlign=top;fontSize=12;movable=1;resizable=1;rotatable=1;deletable=1;editable=1;locked=0;connectable=1;strokeColor=#8F8F8F;align=center;fontFamily=Helvetica;fontColor=default;fillColor=#f5f5f5;dashed=1;dashPattern=8 8;" parent="1" vertex="1">
          <mxGeometry x="4125" y="-309" width="646" height="1042.5" as="geometry" />
        </mxCell>
        <mxCell id="7OVlWc0CsFkuMIYYxnUI-154" value="&lt;font size=&quot;1&quot; style=&quot;&quot;&gt;&lt;b style=&quot;font-size: 16px;&quot;&gt;Deployment: api&lt;/b&gt;&lt;/font&gt;" style="whiteSpace=wrap;html=1;rounded=1;arcSize=2;verticalAlign=top;fontSize=12;movable=1;resizable=1;rotatable=1;deletable=1;editable=1;locked=0;connectable=1;strokeColor=#8F8F8F;align=center;fontFamily=Helvetica;fontColor=default;fillColor=#E6E6E6;" parent="1" vertex="1">
          <mxGeometry x="4197" y="-253" width="500" height="274" as="geometry" />
        </mxCell>
        <mxCell id="7OVlWc0CsFkuMIYYxnUI-109" value="&lt;font style=&quot;font-size: 12px;&quot;&gt;Pod: api&lt;/font&gt;" style="whiteSpace=wrap;html=1;rounded=1;arcSize=2;verticalAlign=top;fontSize=12;strokeColor=default;align=center;fontFamily=Helvetica;fontColor=default;fillColor=#DAE6CE;movable=1;resizable=1;rotatable=1;deletable=1;editable=1;locked=0;connectable=1;" parent="1" vertex="1">
          <mxGeometry x="4237" y="-193" width="240" height="189" as="geometry" />
        </mxCell>
        <mxCell id="7OVlWc0CsFkuMIYYxnUI-114" value="&lt;font style=&quot;font-size: 12px;&quot;&gt;Pod: jmeter-controller&lt;/font&gt;" style="whiteSpace=wrap;html=1;rounded=1;arcSize=2;verticalAlign=top;fontSize=12;strokeColor=default;align=center;fontFamily=Helvetica;fontColor=default;fillColor=#DAE6CE;movable=1;resizable=1;rotatable=1;deletable=1;editable=1;locked=0;connectable=1;" parent="1" vertex="1">
          <mxGeometry x="5168" y="146.25" width="240" height="170" as="geometry" />
        </mxCell>
        <mxCell id="7OVlWc0CsFkuMIYYxnUI-115" value="&lt;font style=&quot;font-size: 12px;&quot;&gt;n Pods:&amp;nbsp;&lt;/font&gt;jmeter-worker" style="whiteSpace=wrap;html=1;rounded=1;arcSize=2;verticalAlign=top;fontSize=12;strokeColor=default;align=center;fontFamily=Helvetica;fontColor=default;fillColor=#DAE6CE;movable=1;resizable=1;rotatable=1;deletable=1;editable=1;locked=0;connectable=1;" parent="1" vertex="1">
          <mxGeometry x="5140" y="524" width="240" height="170" as="geometry" />
        </mxCell>
        <mxCell id="Efgqmvd8i2EMckIcJvgt-19" style="edgeStyle=orthogonalEdgeStyle;rounded=0;orthogonalLoop=1;jettySize=auto;html=1;exitX=1;exitY=0.75;exitDx=0;exitDy=0;entryX=1;entryY=0.5;entryDx=0;entryDy=0;movable=1;resizable=1;rotatable=1;deletable=1;editable=1;locked=0;connectable=1;" parent="1" source="7OVlWc0CsFkuMIYYxnUI-128" target="Efgqmvd8i2EMckIcJvgt-3" edge="1">
          <mxGeometry relative="1" as="geometry">
            <Array as="points">
              <mxPoint x="5388" y="270" />
              <mxPoint x="5628" y="270" />
              <mxPoint x="5628" y="845" />
            </Array>
          </mxGeometry>
        </mxCell>
        <mxCell id="7OVlWc0CsFkuMIYYxnUI-128" value="&lt;font style=&quot;font-size: 12px;&quot;&gt;App: jemter-controller&lt;/font&gt;" style="whiteSpace=wrap;html=1;rounded=1;arcSize=2;verticalAlign=middle;fontSize=12;strokeColor=#000000;align=center;fontFamily=Helvetica;fontColor=default;fillColor=#edf3e9;gradientColor=none;movable=1;resizable=1;rotatable=1;deletable=1;editable=1;locked=0;connectable=1;" parent="1" vertex="1">
          <mxGeometry x="5188" y="201.25" width="200" height="90" as="geometry" />
        </mxCell>
        <mxCell id="7OVlWc0CsFkuMIYYxnUI-129" value="&lt;font style=&quot;font-size: 12px;&quot;&gt;App:&amp;nbsp;&lt;/font&gt;jmeter-worker" style="whiteSpace=wrap;html=1;rounded=1;arcSize=2;verticalAlign=middle;fontSize=12;strokeColor=#000000;align=center;fontFamily=Helvetica;fontColor=default;fillColor=#edf3e9;gradientColor=none;movable=1;resizable=1;rotatable=1;deletable=1;editable=1;locked=0;connectable=1;" parent="1" vertex="1">
          <mxGeometry x="5160" y="579" width="200" height="90" as="geometry" />
        </mxCell>
        <mxCell id="7OVlWc0CsFkuMIYYxnUI-132" value="&lt;font style=&quot;font-size: 12px;&quot;&gt;Pod: frontend&lt;/font&gt;" style="whiteSpace=wrap;html=1;rounded=1;arcSize=2;verticalAlign=top;fontSize=12;fillColor=#DAE6CE;movable=1;resizable=1;rotatable=1;deletable=1;editable=1;locked=0;connectable=1;" parent="1" vertex="1">
          <mxGeometry x="3435" y="-192.5" width="240" height="170" as="geometry" />
        </mxCell>
        <mxCell id="Efgqmvd8i2EMckIcJvgt-5" style="edgeStyle=orthogonalEdgeStyle;rounded=0;orthogonalLoop=1;jettySize=auto;html=1;entryX=0.5;entryY=0;entryDx=0;entryDy=0;movable=1;resizable=1;rotatable=1;deletable=1;editable=1;locked=0;connectable=1;" parent="1" source="7OVlWc0CsFkuMIYYxnUI-133" target="7OVlWc0CsFkuMIYYxnUI-135" edge="1">
          <mxGeometry relative="1" as="geometry">
            <Array as="points">
              <mxPoint x="3945" y="-99" />
              <mxPoint x="3945" y="-270" />
              <mxPoint x="4567" y="-270" />
            </Array>
          </mxGeometry>
        </mxCell>
        <mxCell id="Efgqmvd8i2EMckIcJvgt-6" value="Anfrage an BE" style="edgeLabel;html=1;align=center;verticalAlign=middle;resizable=1;points=[];movable=1;rotatable=1;deletable=1;editable=1;locked=0;connectable=1;" parent="Efgqmvd8i2EMckIcJvgt-5" connectable="0" vertex="1">
          <mxGeometry x="0.4968" y="-1" relative="1" as="geometry">
            <mxPoint x="-55" as="offset" />
          </mxGeometry>
        </mxCell>
        <mxCell id="7OVlWc0CsFkuMIYYxnUI-133" value="&lt;span style=&quot;font-size: 12px;&quot;&gt;App: frontend&lt;/span&gt;" style="whiteSpace=wrap;html=1;rounded=1;arcSize=2;verticalAlign=middle;fontSize=12;strokeColor=#000000;fillColor=#edf3e9;gradientColor=none;movable=1;resizable=1;rotatable=1;deletable=1;editable=1;locked=0;connectable=1;" parent="1" vertex="1">
          <mxGeometry x="3456.5" y="-144" width="200" height="90" as="geometry" />
        </mxCell>
        <mxCell id="7OVlWc0CsFkuMIYYxnUI-134" value="&lt;span style=&quot;font-size: 12px;&quot;&gt;&lt;b style=&quot;font-size: 12px;&quot;&gt;Service: frontend&lt;/b&gt;&lt;/span&gt;" style="whiteSpace=wrap;html=1;fillColor=#9ab0ab;strokeColor=default;rotation=0;fontSize=12;rounded=1;arcSize=9;movable=1;resizable=1;rotatable=1;deletable=1;editable=1;locked=0;connectable=1;" parent="1" vertex="1">
          <mxGeometry x="3675" y="-192.5" width="160" height="40" as="geometry" />
        </mxCell>
        <mxCell id="Efgqmvd8i2EMckIcJvgt-7" style="edgeStyle=orthogonalEdgeStyle;rounded=0;orthogonalLoop=1;jettySize=auto;html=1;entryX=0.996;entryY=0.276;entryDx=0;entryDy=0;entryPerimeter=0;movable=1;resizable=1;rotatable=1;deletable=1;editable=1;locked=0;connectable=1;" parent="1" source="7OVlWc0CsFkuMIYYxnUI-135" target="7OVlWc0CsFkuMIYYxnUI-110" edge="1">
          <mxGeometry relative="1" as="geometry">
            <Array as="points">
              <mxPoint x="4505" y="-107" />
            </Array>
          </mxGeometry>
        </mxCell>
        <mxCell id="7OVlWc0CsFkuMIYYxnUI-135" value="&lt;span style=&quot;font-size: 12px;&quot;&gt;&lt;b style=&quot;font-size: 12px;&quot;&gt;Service: backend&lt;/b&gt;&lt;/span&gt;" style="whiteSpace=wrap;html=1;fillColor=#9ab0ab;strokeColor=default;rotation=0;fontSize=12;rounded=1;align=center;verticalAlign=middle;arcSize=9;fontFamily=Helvetica;fontColor=default;movable=1;resizable=1;rotatable=1;deletable=1;editable=1;locked=0;connectable=1;" parent="1" vertex="1">
          <mxGeometry x="4477" y="-159" width="180" height="40" as="geometry" />
        </mxCell>
        <mxCell id="Efgqmvd8i2EMckIcJvgt-18" style="edgeStyle=orthogonalEdgeStyle;rounded=0;orthogonalLoop=1;jettySize=auto;html=1;entryX=1;entryY=0.5;entryDx=0;entryDy=0;movable=1;resizable=1;rotatable=1;deletable=1;editable=1;locked=0;connectable=1;" parent="1" source="7OVlWc0CsFkuMIYYxnUI-136" target="7OVlWc0CsFkuMIYYxnUI-129" edge="1">
          <mxGeometry relative="1" as="geometry">
            <Array as="points">
              <mxPoint x="5488" y="624" />
            </Array>
          </mxGeometry>
        </mxCell>
        <mxCell id="7OVlWc0CsFkuMIYYxnUI-136" value="&lt;span style=&quot;font-size: 12px;&quot;&gt;&lt;b style=&quot;font-size: 12px;&quot;&gt;Service: jmeter_agent_service&lt;/b&gt;&lt;/span&gt;" style="whiteSpace=wrap;html=1;fillColor=#9ab0ab;strokeColor=default;rotation=0;fontSize=12;rounded=1;align=center;verticalAlign=middle;arcSize=9;fontFamily=Helvetica;fontColor=default;movable=1;resizable=1;rotatable=1;deletable=1;editable=1;locked=0;connectable=1;" parent="1" vertex="1">
          <mxGeometry x="5380" y="524" width="180" height="40" as="geometry" />
        </mxCell>
        <mxCell id="7OVlWc0CsFkuMIYYxnUI-139" value="" style="whiteSpace=wrap;html=1;fillColor=#d9e5cd;rounded=1;arcSize=3;fontSize=12;movable=1;resizable=1;rotatable=1;deletable=1;editable=1;locked=0;connectable=1;" parent="1" vertex="1">
          <mxGeometry x="2655" y="-515" width="400" height="1810" as="geometry" />
        </mxCell>
        <mxCell id="7OVlWc0CsFkuMIYYxnUI-140" style="edgeStyle=orthogonalEdgeStyle;rounded=0;orthogonalLoop=1;jettySize=auto;html=1;startArrow=classic;startFill=1;fontSize=12;movable=1;resizable=1;rotatable=1;deletable=1;editable=1;locked=0;connectable=1;" parent="1" source="7OVlWc0CsFkuMIYYxnUI-141" target="7OVlWc0CsFkuMIYYxnUI-144" edge="1">
          <mxGeometry relative="1" as="geometry" />
        </mxCell>
        <mxCell id="7OVlWc0CsFkuMIYYxnUI-141" value="cloud-control-manager" style="rounded=1;whiteSpace=wrap;html=1;fontSize=12;movable=1;resizable=1;rotatable=1;deletable=1;editable=1;locked=0;connectable=1;" parent="1" vertex="1">
          <mxGeometry x="2705" y="-443.75" width="310" height="60" as="geometry" />
        </mxCell>
        <mxCell id="7OVlWc0CsFkuMIYYxnUI-150" style="edgeStyle=orthogonalEdgeStyle;rounded=0;orthogonalLoop=1;jettySize=auto;html=1;exitX=0.5;exitY=0;exitDx=0;exitDy=0;entryX=0;entryY=0.75;entryDx=0;entryDy=0;fontSize=12;movable=1;resizable=1;rotatable=1;deletable=1;editable=1;locked=0;connectable=1;" parent="1" source="7OVlWc0CsFkuMIYYxnUI-143" target="7OVlWc0CsFkuMIYYxnUI-144" edge="1">
          <mxGeometry relative="1" as="geometry">
            <Array as="points">
              <mxPoint x="2860" y="-273" />
            </Array>
          </mxGeometry>
        </mxCell>
        <mxCell id="7OVlWc0CsFkuMIYYxnUI-143" value="etcd" style="rounded=1;whiteSpace=wrap;html=1;verticalAlign=top;arcSize=4;fontSize=12;movable=1;resizable=1;rotatable=1;deletable=1;editable=1;locked=0;connectable=1;" parent="1" vertex="1">
          <mxGeometry x="2705" y="-90" width="310" height="240" as="geometry" />
        </mxCell>
        <mxCell id="7OVlWc0CsFkuMIYYxnUI-144" value="kube-api-server" style="rounded=1;whiteSpace=wrap;html=1;fontSize=12;movable=1;resizable=1;rotatable=1;deletable=1;editable=1;locked=0;connectable=1;" parent="1" vertex="1">
          <mxGeometry x="2895" y="-318" width="110" height="60" as="geometry" />
        </mxCell>
        <mxCell id="7OVlWc0CsFkuMIYYxnUI-145" style="edgeStyle=orthogonalEdgeStyle;rounded=0;orthogonalLoop=1;jettySize=auto;html=1;entryX=0;entryY=0.5;entryDx=0;entryDy=0;fontSize=12;movable=1;resizable=1;rotatable=1;deletable=1;editable=1;locked=0;connectable=1;" parent="1" source="7OVlWc0CsFkuMIYYxnUI-146" target="7OVlWc0CsFkuMIYYxnUI-144" edge="1">
          <mxGeometry relative="1" as="geometry" />
        </mxCell>
        <mxCell id="7OVlWc0CsFkuMIYYxnUI-146" value="scheduler" style="rounded=1;whiteSpace=wrap;html=1;fontSize=12;movable=1;resizable=1;rotatable=1;deletable=1;editable=1;locked=0;connectable=1;" parent="1" vertex="1">
          <mxGeometry x="2705" y="-318" width="110" height="60" as="geometry" />
        </mxCell>
        <mxCell id="7OVlWc0CsFkuMIYYxnUI-147" style="edgeStyle=orthogonalEdgeStyle;rounded=0;orthogonalLoop=1;jettySize=auto;html=1;fontSize=12;movable=1;resizable=1;rotatable=1;deletable=1;editable=1;locked=0;connectable=1;" parent="1" source="7OVlWc0CsFkuMIYYxnUI-148" target="7OVlWc0CsFkuMIYYxnUI-144" edge="1">
          <mxGeometry relative="1" as="geometry" />
        </mxCell>
        <mxCell id="7OVlWc0CsFkuMIYYxnUI-148" value="Controller Manager" style="rounded=1;whiteSpace=wrap;html=1;fontSize=12;movable=1;resizable=1;rotatable=1;deletable=1;editable=1;locked=0;connectable=1;" parent="1" vertex="1">
          <mxGeometry x="2885" y="-204" width="130" height="60" as="geometry" />
        </mxCell>
        <mxCell id="7OVlWc0CsFkuMIYYxnUI-149" value="&lt;font style=&quot;font-size: 12px;&quot;&gt;&lt;b style=&quot;font-size: 12px;&quot;&gt;Master Node&lt;/b&gt;&lt;/font&gt;" style="text;html=1;align=center;verticalAlign=middle;whiteSpace=wrap;rounded=0;fontSize=12;movable=1;resizable=1;rotatable=1;deletable=1;editable=1;locked=0;connectable=1;" parent="1" vertex="1">
          <mxGeometry x="2795" y="-495" width="130" height="30" as="geometry" />
        </mxCell>
        <mxCell id="UkHKmTNBYrg7jvq7JIB1-1" style="edgeStyle=orthogonalEdgeStyle;rounded=0;orthogonalLoop=1;jettySize=auto;html=1;movable=1;resizable=1;rotatable=1;deletable=1;editable=1;locked=0;connectable=1;" parent="1" source="7OVlWc0CsFkuMIYYxnUI-152" target="7OVlWc0CsFkuMIYYxnUI-141" edge="1">
          <mxGeometry relative="1" as="geometry" />
        </mxCell>
        <mxCell id="UkHKmTNBYrg7jvq7JIB1-2" style="edgeStyle=orthogonalEdgeStyle;rounded=0;orthogonalLoop=1;jettySize=auto;html=1;exitX=0.5;exitY=1;exitDx=0;exitDy=0;movable=1;resizable=1;rotatable=1;deletable=1;editable=1;locked=0;connectable=1;" parent="1" source="7OVlWc0CsFkuMIYYxnUI-152" target="7OVlWc0CsFkuMIYYxnUI-153" edge="1">
          <mxGeometry relative="1" as="geometry">
            <Array as="points">
              <mxPoint x="3390" y="-359" />
              <mxPoint x="4435" y="-359" />
            </Array>
          </mxGeometry>
        </mxCell>
        <mxCell id="7OVlWc0CsFkuMIYYxnUI-152" value="kublet" style="rounded=1;whiteSpace=wrap;html=1;fontSize=12;movable=1;resizable=1;rotatable=1;deletable=1;editable=1;locked=0;connectable=1;" parent="1" vertex="1">
          <mxGeometry x="3285" y="-443.75" width="210" height="60" as="geometry" />
        </mxCell>
        <mxCell id="7OVlWc0CsFkuMIYYxnUI-155" value="&lt;font style=&quot;font-size: 12px;&quot;&gt;ConfigMap: qload_config&lt;/font&gt;" style="whiteSpace=wrap;html=1;rounded=1;arcSize=2;verticalAlign=middle;fontSize=12;fillColor=#DAE6CE;movable=1;resizable=1;rotatable=1;deletable=1;editable=1;locked=0;connectable=1;" parent="1" vertex="1">
          <mxGeometry x="2740" y="70" width="240" height="50" as="geometry" />
        </mxCell>
        <mxCell id="7OVlWc0CsFkuMIYYxnUI-156" value="&lt;font style=&quot;font-size: 12px;&quot;&gt;Secret: qload_secret&lt;/font&gt;" style="whiteSpace=wrap;html=1;rounded=1;arcSize=2;verticalAlign=middle;fontSize=12;fillColor=#541327;fontColor=#FFFFFF;movable=1;resizable=1;rotatable=1;deletable=1;editable=1;locked=0;connectable=1;" parent="1" vertex="1">
          <mxGeometry x="2740" y="1.25" width="240" height="50" as="geometry" />
        </mxCell>
        <mxCell id="ZCW60HN4UCI8_1PRk3wG-1" value="kube-proxy" style="rounded=1;whiteSpace=wrap;html=1;movable=1;resizable=1;rotatable=1;deletable=1;editable=1;locked=0;connectable=1;" parent="1" vertex="1">
          <mxGeometry x="3521.5" y="-443.75" width="110" height="60" as="geometry" />
        </mxCell>
        <mxCell id="TPNZpiHJa9W8Kg9He1s7-1" value="&lt;b&gt;Ingres: frontend&lt;/b&gt;" style="whiteSpace=wrap;html=1;fillColor=#9ab0ab;strokeColor=default;rotation=0;fontSize=12;rounded=1;arcSize=9;movable=1;resizable=1;rotatable=1;deletable=1;editable=1;locked=0;connectable=1;" parent="1" vertex="1">
          <mxGeometry x="3705" y="-152.5" width="160" height="40" as="geometry" />
        </mxCell>
        <mxCell id="TPNZpiHJa9W8Kg9He1s7-6" value="&lt;span style=&quot;font-size: 16px;&quot;&gt;&lt;b&gt;Helm Chart: minio&lt;/b&gt;&lt;/span&gt;" style="whiteSpace=wrap;html=1;rounded=1;arcSize=2;verticalAlign=top;fontSize=12;movable=1;resizable=1;rotatable=1;deletable=1;editable=1;locked=0;connectable=1;strokeColor=#6c8ebf;align=center;fontFamily=Helvetica;fillColor=#dae8fc;" parent="1" vertex="1">
          <mxGeometry x="5085" y="-264" width="503" height="280" as="geometry" />
        </mxCell>
        <mxCell id="TPNZpiHJa9W8Kg9He1s7-7" value="&lt;span style=&quot;font-size: 12px;&quot;&gt;&lt;b style=&quot;font-size: 12px;&quot;&gt;Service: file_server&lt;/b&gt;&lt;/span&gt;" style="whiteSpace=wrap;html=1;fillColor=#9ab0ab;strokeColor=default;rotation=0;fontSize=12;rounded=1;align=center;verticalAlign=middle;arcSize=9;fontFamily=Helvetica;fontColor=default;movable=1;resizable=1;rotatable=1;deletable=1;editable=1;locked=0;connectable=1;" parent="1" vertex="1">
          <mxGeometry x="5299" y="-188" width="180" height="40" as="geometry" />
        </mxCell>
        <mxCell id="Efgqmvd8i2EMckIcJvgt-1" value="&lt;font style=&quot;font-size: 12px;&quot;&gt;n Pods:&amp;nbsp;jmeter-worker&lt;/font&gt;" style="whiteSpace=wrap;html=1;rounded=1;arcSize=2;verticalAlign=top;fontSize=12;strokeColor=default;align=center;fontFamily=Helvetica;fontColor=default;fillColor=#DAE6CE;movable=1;resizable=1;rotatable=1;deletable=1;editable=1;locked=0;connectable=1;" parent="1" vertex="1">
          <mxGeometry x="5140" y="825" width="240" height="170" as="geometry" />
        </mxCell>
        <mxCell id="Efgqmvd8i2EMckIcJvgt-2" value="&lt;font style=&quot;font-size: 12px;&quot;&gt;App:&amp;nbsp;&lt;/font&gt;jmeter-worker" style="whiteSpace=wrap;html=1;rounded=1;arcSize=2;verticalAlign=middle;fontSize=12;strokeColor=#000000;align=center;fontFamily=Helvetica;fontColor=default;fillColor=#edf3e9;gradientColor=none;movable=1;resizable=1;rotatable=1;deletable=1;editable=1;locked=0;connectable=1;" parent="1" vertex="1">
          <mxGeometry x="5160" y="880" width="200" height="90" as="geometry" />
        </mxCell>
        <mxCell id="Efgqmvd8i2EMckIcJvgt-3" value="&lt;span style=&quot;font-size: 12px;&quot;&gt;&lt;b style=&quot;font-size: 12px;&quot;&gt;Service: jmeter_agent_service&lt;/b&gt;&lt;/span&gt;" style="whiteSpace=wrap;html=1;fillColor=#9ab0ab;strokeColor=default;rotation=0;fontSize=12;rounded=1;align=center;verticalAlign=middle;arcSize=9;fontFamily=Helvetica;fontColor=default;movable=1;resizable=1;rotatable=1;deletable=1;editable=1;locked=0;connectable=1;" parent="1" vertex="1">
          <mxGeometry x="5380" y="825" width="180" height="40" as="geometry" />
        </mxCell>
        <mxCell id="Efgqmvd8i2EMckIcJvgt-4" value="&lt;font style=&quot;font-size: 40px;&quot;&gt;...&lt;/font&gt;" style="text;html=1;align=center;verticalAlign=middle;whiteSpace=wrap;rounded=0;rotation=90;movable=1;resizable=1;rotatable=1;deletable=1;editable=1;locked=0;connectable=1;" parent="1" vertex="1">
          <mxGeometry x="5258" y="750" width="60" height="30" as="geometry" />
        </mxCell>
        <mxCell id="Efgqmvd8i2EMckIcJvgt-20" style="edgeStyle=orthogonalEdgeStyle;rounded=0;orthogonalLoop=1;jettySize=auto;html=1;entryX=1.002;entryY=0.585;entryDx=0;entryDy=0;entryPerimeter=0;movable=1;resizable=1;rotatable=1;deletable=1;editable=1;locked=0;connectable=1;" parent="1" source="Efgqmvd8i2EMckIcJvgt-3" target="Efgqmvd8i2EMckIcJvgt-2" edge="1">
          <mxGeometry relative="1" as="geometry">
            <Array as="points">
              <mxPoint x="5478" y="933" />
              <mxPoint x="5360" y="933" />
            </Array>
          </mxGeometry>
        </mxCell>
        <mxCell id="Efgqmvd8i2EMckIcJvgt-21" style="edgeStyle=orthogonalEdgeStyle;rounded=0;orthogonalLoop=1;jettySize=auto;html=1;exitX=1;exitY=0.5;exitDx=0;exitDy=0;entryX=1;entryY=0.5;entryDx=0;entryDy=0;movable=1;resizable=1;rotatable=1;deletable=1;editable=1;locked=0;connectable=1;" parent="1" source="7OVlWc0CsFkuMIYYxnUI-128" target="TPNZpiHJa9W8Kg9He1s7-7" edge="1">
          <mxGeometry relative="1" as="geometry">
            <Array as="points">
              <mxPoint x="5628" y="246" />
              <mxPoint x="5628" y="-168" />
            </Array>
          </mxGeometry>
        </mxCell>
        <mxCell id="Efgqmvd8i2EMckIcJvgt-22" value="Schreibt Reports" style="edgeLabel;html=1;align=center;verticalAlign=middle;resizable=1;points=[];movable=1;rotatable=1;deletable=1;editable=1;locked=0;connectable=1;" parent="Efgqmvd8i2EMckIcJvgt-21" connectable="0" vertex="1">
          <mxGeometry x="-0.7484" y="2" relative="1" as="geometry">
            <mxPoint x="14" y="2" as="offset" />
          </mxGeometry>
        </mxCell>
        <mxCell id="Efgqmvd8i2EMckIcJvgt-32" style="edgeStyle=orthogonalEdgeStyle;rounded=0;orthogonalLoop=1;jettySize=auto;html=1;exitX=1;exitY=0.25;exitDx=0;exitDy=0;entryX=1;entryY=0.75;entryDx=0;entryDy=0;movable=1;resizable=1;rotatable=1;deletable=1;editable=1;locked=0;connectable=1;" parent="1" source="7OVlWc0CsFkuMIYYxnUI-128" target="TPNZpiHJa9W8Kg9He1s7-7" edge="1">
          <mxGeometry relative="1" as="geometry">
            <Array as="points">
              <mxPoint x="5608" y="224" />
              <mxPoint x="5608" y="-158" />
            </Array>
          </mxGeometry>
        </mxCell>
        <mxCell id="Efgqmvd8i2EMckIcJvgt-33" value="Holt Projektdateien&amp;nbsp;&lt;div&gt;(JMeter oder CSV-Dateien,&amp;nbsp;&lt;/div&gt;&lt;div&gt;Daten etc.)&lt;/div&gt;" style="edgeLabel;html=1;align=center;verticalAlign=middle;resizable=1;points=[];movable=1;rotatable=1;deletable=1;editable=1;locked=0;connectable=1;" parent="Efgqmvd8i2EMckIcJvgt-32" connectable="0" vertex="1">
          <mxGeometry x="-0.8185" y="2" relative="1" as="geometry">
            <mxPoint x="48" y="-11" as="offset" />
          </mxGeometry>
        </mxCell>
        <mxCell id="Efgqmvd8i2EMckIcJvgt-16" style="edgeStyle=orthogonalEdgeStyle;rounded=0;orthogonalLoop=1;jettySize=auto;html=1;exitX=1;exitY=0.75;exitDx=0;exitDy=0;entryX=1;entryY=0.5;entryDx=0;entryDy=0;movable=1;resizable=1;rotatable=1;deletable=1;editable=1;locked=0;connectable=1;" parent="1" source="7OVlWc0CsFkuMIYYxnUI-128" target="7OVlWc0CsFkuMIYYxnUI-136" edge="1">
          <mxGeometry relative="1" as="geometry">
            <Array as="points">
              <mxPoint x="5388" y="270" />
              <mxPoint x="5608" y="270" />
              <mxPoint x="5608" y="544" />
            </Array>
          </mxGeometry>
        </mxCell>
        <mxCell id="Efgqmvd8i2EMckIcJvgt-17" value="Verbindet sich mit Service" style="edgeLabel;html=1;align=center;verticalAlign=middle;resizable=1;points=[];movable=1;rotatable=1;deletable=1;editable=1;locked=0;connectable=1;" parent="Efgqmvd8i2EMckIcJvgt-16" connectable="0" vertex="1">
          <mxGeometry x="-0.2987" relative="1" as="geometry">
            <mxPoint x="-74" as="offset" />
          </mxGeometry>
        </mxCell>
        <mxCell id="1kscTgb3eFn9fxUTIaNH-2" value="&lt;font style=&quot;font-size: 12px;&quot;&gt;Secret: postgress&lt;/font&gt;" style="whiteSpace=wrap;html=1;rounded=1;arcSize=2;verticalAlign=middle;fontSize=12;fillColor=#541327;fontColor=#FFFFFF;movable=1;resizable=1;rotatable=1;deletable=1;editable=1;locked=0;connectable=1;" parent="1" vertex="1">
          <mxGeometry x="2740" y="-54" width="240" height="50" as="geometry" />
        </mxCell>
        <mxCell id="1kscTgb3eFn9fxUTIaNH-14" style="edgeStyle=orthogonalEdgeStyle;rounded=0;orthogonalLoop=1;jettySize=auto;html=1;exitX=1;exitY=0.75;exitDx=0;exitDy=0;entryX=1;entryY=0.25;entryDx=0;entryDy=0;movable=1;resizable=1;rotatable=1;deletable=1;editable=1;locked=0;connectable=1;" parent="1" source="7OVlWc0CsFkuMIYYxnUI-110" target="TPNZpiHJa9W8Kg9He1s7-7" edge="1">
          <mxGeometry relative="1" as="geometry">
            <mxPoint x="5255" y="-280" as="targetPoint" />
            <Array as="points">
              <mxPoint x="4975" y="-64" />
              <mxPoint x="4975" y="-290" />
              <mxPoint x="5625" y="-290" />
              <mxPoint x="5625" y="-178" />
            </Array>
          </mxGeometry>
        </mxCell>
        <mxCell id="1kscTgb3eFn9fxUTIaNH-15" value="Sendet Projektdateien (z.B. JMeter Skripte)" style="edgeLabel;html=1;align=center;verticalAlign=middle;resizable=1;points=[];movable=1;rotatable=1;deletable=1;editable=1;locked=0;connectable=1;" parent="1kscTgb3eFn9fxUTIaNH-14" connectable="0" vertex="1">
          <mxGeometry x="-0.911" relative="1" as="geometry">
            <mxPoint x="84" y="-4" as="offset" />
          </mxGeometry>
        </mxCell>
        <mxCell id="7OVlWc0CsFkuMIYYxnUI-110" value="&lt;font style=&quot;font-size: 12px;&quot;&gt;App: api&lt;/font&gt;" style="whiteSpace=wrap;html=1;rounded=1;arcSize=2;verticalAlign=middle;fontSize=12;strokeColor=#000000;align=center;fontFamily=Helvetica;fontColor=default;fillColor=#edf3e9;gradientColor=none;movable=1;resizable=1;rotatable=1;deletable=1;editable=1;locked=0;connectable=1;" parent="1" vertex="1">
          <mxGeometry x="4257" y="-132" width="200" height="90" as="geometry" />
        </mxCell>
        <mxCell id="1kscTgb3eFn9fxUTIaNH-3" style="edgeStyle=orthogonalEdgeStyle;rounded=0;orthogonalLoop=1;jettySize=auto;html=1;dashed=1;movable=1;resizable=1;rotatable=1;deletable=1;editable=1;locked=0;connectable=1;" parent="1" source="7OVlWc0CsFkuMIYYxnUI-110" target="7OVlWc0CsFkuMIYYxnUI-143" edge="1">
          <mxGeometry relative="1" as="geometry">
            <mxPoint x="3735" y="80" as="targetPoint" />
            <Array as="points">
              <mxPoint x="3995" y="-100" />
              <mxPoint x="3995" y="90" />
            </Array>
          </mxGeometry>
        </mxCell>
        <mxCell id="1kscTgb3eFn9fxUTIaNH-4" value="Fragt PostGress Token an" style="edgeLabel;html=1;align=center;verticalAlign=middle;resizable=1;points=[];movable=1;rotatable=1;deletable=1;editable=1;locked=0;connectable=1;" parent="1kscTgb3eFn9fxUTIaNH-3" connectable="0" vertex="1">
          <mxGeometry x="-0.6721" y="-1" relative="1" as="geometry">
            <mxPoint x="-99" y="59" as="offset" />
          </mxGeometry>
        </mxCell>
        <mxCell id="1kscTgb3eFn9fxUTIaNH-8" value="&lt;font size=&quot;1&quot; style=&quot;&quot;&gt;&lt;b style=&quot;font-size: 16px;&quot;&gt;StatefulSet: scheduler&lt;/b&gt;&lt;/font&gt;" style="whiteSpace=wrap;html=1;rounded=1;arcSize=2;verticalAlign=top;fontSize=12;movable=1;resizable=1;rotatable=1;deletable=1;editable=1;locked=0;connectable=1;strokeColor=#8F8F8F;align=center;fontFamily=Helvetica;fontColor=default;fillColor=#E6E6E6;" parent="1" vertex="1">
          <mxGeometry x="4197" y="57.129999999999995" width="500" height="344" as="geometry" />
        </mxCell>
        <mxCell id="1kscTgb3eFn9fxUTIaNH-9" value="&lt;font size=&quot;1&quot; style=&quot;&quot;&gt;&lt;b style=&quot;font-size: 16px;&quot;&gt;Deployment: jmeter-runner&lt;/b&gt;&lt;/font&gt;" style="whiteSpace=wrap;html=1;rounded=1;arcSize=2;verticalAlign=top;fontSize=12;movable=1;resizable=1;rotatable=1;deletable=1;editable=1;locked=0;connectable=1;strokeColor=#8F8F8F;align=center;fontFamily=Helvetica;fontColor=default;fillColor=#E6E6E6;" parent="1" vertex="1">
          <mxGeometry x="4197" y="432.88" width="500" height="274" as="geometry" />
        </mxCell>
        <mxCell id="1kscTgb3eFn9fxUTIaNH-10" value="&lt;font style=&quot;font-size: 12px;&quot;&gt;Pod: scheduler&lt;/font&gt;" style="whiteSpace=wrap;html=1;rounded=1;arcSize=2;verticalAlign=top;fontSize=12;strokeColor=default;align=center;fontFamily=Helvetica;fontColor=default;fillColor=#DAE6CE;movable=1;resizable=1;rotatable=1;deletable=1;editable=1;locked=0;connectable=1;" parent="1" vertex="1">
          <mxGeometry x="4237" y="104.5" width="240" height="265.25" as="geometry" />
        </mxCell>
        <mxCell id="1kscTgb3eFn9fxUTIaNH-11" value="&lt;font style=&quot;font-size: 12px;&quot;&gt;Pod: jmeter-runner&lt;/font&gt;" style="whiteSpace=wrap;html=1;rounded=1;arcSize=2;verticalAlign=top;fontSize=12;strokeColor=default;align=center;fontFamily=Helvetica;fontColor=default;fillColor=#DAE6CE;movable=1;resizable=1;rotatable=1;deletable=1;editable=1;locked=0;connectable=1;" parent="1" vertex="1">
          <mxGeometry x="4237" y="483.13" width="240" height="189" as="geometry" />
        </mxCell>
        <mxCell id="7OVlWc0CsFkuMIYYxnUI-111" value="&lt;font style=&quot;font-size: 12px;&quot;&gt;App: celery&lt;/font&gt;" style="whiteSpace=wrap;html=1;rounded=1;arcSize=2;verticalAlign=middle;fontSize=12;strokeColor=#000000;align=center;fontFamily=Helvetica;fontColor=default;fillColor=#edf3e9;gradientColor=none;movable=1;resizable=1;rotatable=1;deletable=1;editable=1;locked=0;connectable=1;" parent="1" vertex="1">
          <mxGeometry x="4257" y="147.75" width="200" height="90" as="geometry" />
        </mxCell>
        <mxCell id="7OVlWc0CsFkuMIYYxnUI-112" value="&lt;font style=&quot;font-size: 12px;&quot;&gt;App: redis&lt;/font&gt;" style="whiteSpace=wrap;html=1;rounded=1;arcSize=2;verticalAlign=middle;fontSize=12;strokeColor=#000000;align=center;fontFamily=Helvetica;fontColor=default;fillColor=#edf3e9;gradientColor=none;movable=1;resizable=1;rotatable=1;deletable=1;editable=1;locked=0;connectable=1;" parent="1" vertex="1">
          <mxGeometry x="4257" y="259.75" width="200" height="90" as="geometry" />
        </mxCell>
        <mxCell id="7OVlWc0CsFkuMIYYxnUI-113" value="&lt;font style=&quot;font-size: 12px;&quot;&gt;App: runner&lt;/font&gt;" style="whiteSpace=wrap;html=1;rounded=1;arcSize=2;verticalAlign=middle;fontSize=12;strokeColor=#000000;align=center;fontFamily=Helvetica;fontColor=default;fillColor=#edf3e9;gradientColor=none;movable=1;resizable=1;rotatable=1;deletable=1;editable=1;locked=0;connectable=1;" parent="1" vertex="1">
          <mxGeometry x="4257" y="572.13" width="200" height="90" as="geometry" />
        </mxCell>
        <mxCell id="Efgqmvd8i2EMckIcJvgt-10" style="edgeStyle=orthogonalEdgeStyle;rounded=0;orthogonalLoop=1;jettySize=auto;html=1;exitX=1;exitY=0.75;exitDx=0;exitDy=0;entryX=1;entryY=0.25;entryDx=0;entryDy=0;movable=1;resizable=1;rotatable=1;deletable=1;editable=1;locked=0;connectable=1;" parent="1" source="7OVlWc0CsFkuMIYYxnUI-111" target="7OVlWc0CsFkuMIYYxnUI-113" edge="1">
          <mxGeometry relative="1" as="geometry">
            <Array as="points">
              <mxPoint x="4457" y="211" />
              <mxPoint x="4755" y="211" />
              <mxPoint x="4755" y="595" />
            </Array>
            <mxPoint x="4447.000000000001" y="279.86" as="sourcePoint" />
            <mxPoint x="4447.000000000001" y="453.86" as="targetPoint" />
          </mxGeometry>
        </mxCell>
        <mxCell id="Efgqmvd8i2EMckIcJvgt-11" value="startet worker" style="edgeLabel;html=1;align=center;verticalAlign=middle;resizable=1;points=[];movable=1;rotatable=1;deletable=1;editable=1;locked=0;connectable=1;" parent="Efgqmvd8i2EMckIcJvgt-10" connectable="0" vertex="1">
          <mxGeometry x="-0.1394" y="1" relative="1" as="geometry">
            <mxPoint x="-119" y="-120" as="offset" />
          </mxGeometry>
        </mxCell>
        <mxCell id="Efgqmvd8i2EMckIcJvgt-12" style="edgeStyle=orthogonalEdgeStyle;rounded=0;orthogonalLoop=1;jettySize=auto;html=1;exitX=1;exitY=0.5;exitDx=0;exitDy=0;entryX=0;entryY=0.25;entryDx=0;entryDy=0;movable=1;resizable=1;rotatable=1;deletable=1;editable=1;locked=0;connectable=1;" parent="1" source="7OVlWc0CsFkuMIYYxnUI-113" target="TPNZpiHJa9W8Kg9He1s7-9" edge="1">
          <mxGeometry relative="1" as="geometry">
            <Array as="points">
              <mxPoint x="4457" y="620" />
              <mxPoint x="4785" y="620" />
              <mxPoint x="4785" y="138" />
            </Array>
          </mxGeometry>
        </mxCell>
        <mxCell id="GrYR2SbkgFIPCk1hRJQ1-1" value="Startet Job" style="edgeLabel;html=1;align=center;verticalAlign=middle;resizable=1;points=[];movable=1;rotatable=1;deletable=1;editable=1;locked=0;connectable=1;" parent="Efgqmvd8i2EMckIcJvgt-12" connectable="0" vertex="1">
          <mxGeometry x="-0.2929" relative="1" as="geometry">
            <mxPoint x="-150" y="54" as="offset" />
          </mxGeometry>
        </mxCell>
        <mxCell id="Efgqmvd8i2EMckIcJvgt-14" style="edgeStyle=orthogonalEdgeStyle;rounded=0;orthogonalLoop=1;jettySize=auto;html=1;exitX=1;exitY=0.75;exitDx=0;exitDy=0;entryX=0.002;entryY=0.142;entryDx=0;entryDy=0;entryPerimeter=0;movable=1;resizable=1;rotatable=1;deletable=1;editable=1;locked=0;connectable=1;" parent="1" source="7OVlWc0CsFkuMIYYxnUI-113" target="TPNZpiHJa9W8Kg9He1s7-10" edge="1">
          <mxGeometry relative="1" as="geometry">
            <Array as="points">
              <mxPoint x="4535" y="640" />
              <mxPoint x="4805" y="640" />
              <mxPoint x="4805" y="518" />
            </Array>
            <mxPoint x="4785" y="540" as="targetPoint" />
          </mxGeometry>
        </mxCell>
        <mxCell id="Efgqmvd8i2EMckIcJvgt-15" value="Startet Job" style="edgeLabel;html=1;align=center;verticalAlign=middle;resizable=1;points=[];movable=1;rotatable=1;deletable=1;editable=1;locked=0;connectable=1;" parent="Efgqmvd8i2EMckIcJvgt-14" connectable="0" vertex="1">
          <mxGeometry x="-0.3393" y="2" relative="1" as="geometry">
            <mxPoint x="-67" y="4" as="offset" />
          </mxGeometry>
        </mxCell>
        <mxCell id="Efgqmvd8i2EMckIcJvgt-8" style="edgeStyle=orthogonalEdgeStyle;rounded=0;orthogonalLoop=1;jettySize=auto;html=1;entryX=1;entryY=0.5;entryDx=0;entryDy=0;exitX=1;exitY=1;exitDx=0;exitDy=0;movable=1;resizable=1;rotatable=1;deletable=1;editable=1;locked=0;connectable=1;" parent="1" source="7OVlWc0CsFkuMIYYxnUI-110" target="7OVlWc0CsFkuMIYYxnUI-111" edge="1">
          <mxGeometry relative="1" as="geometry">
            <mxPoint x="4447" y="181" as="sourcePoint" />
            <mxPoint x="4457" y="166" as="targetPoint" />
            <Array as="points">
              <mxPoint x="4457" y="-49" />
              <mxPoint x="4755" y="-49" />
              <mxPoint x="4755" y="193" />
            </Array>
          </mxGeometry>
        </mxCell>
        <mxCell id="oH4TG-YbMOmBQOoqMi1V-2" value="&lt;font size=&quot;1&quot; style=&quot;&quot;&gt;&lt;b style=&quot;font-size: 16px;&quot;&gt;Cloud&lt;/b&gt;&lt;/font&gt;" style="whiteSpace=wrap;html=1;rounded=1;arcSize=2;verticalAlign=top;fontSize=12;movable=1;resizable=1;rotatable=1;deletable=1;editable=1;locked=0;connectable=1;strokeColor=#d6b656;align=center;fontFamily=Helvetica;fillColor=#fff2cc;dashed=1;dashPattern=8 8;" vertex="1" parent="1">
          <mxGeometry x="3845" y="1367.5" width="830" height="330" as="geometry" />
        </mxCell>
        <mxCell id="1kscTgb3eFn9fxUTIaNH-1" value="&lt;font size=&quot;1&quot; style=&quot;&quot;&gt;&lt;b style=&quot;font-size: 16px;&quot;&gt;PostGres Cloud&lt;/b&gt;&lt;/font&gt;" style="whiteSpace=wrap;html=1;rounded=1;arcSize=2;verticalAlign=top;fontSize=12;movable=1;resizable=1;rotatable=1;deletable=1;editable=1;locked=0;connectable=1;strokeColor=#8F8F8F;align=center;fontFamily=Helvetica;fontColor=default;fillColor=#E6E6E6;" parent="1" vertex="1">
          <mxGeometry x="3915" y="1455" width="300" height="150" as="geometry" />
        </mxCell>
        <mxCell id="7OVlWc0CsFkuMIYYxnUI-124" value="&lt;font style=&quot;font-size: 16px;&quot;&gt;&lt;b&gt;InfluxDB Cloud&lt;/b&gt;&lt;/font&gt;" style="whiteSpace=wrap;html=1;rounded=1;arcSize=2;verticalAlign=top;fontSize=12;movable=1;resizable=1;rotatable=1;deletable=1;editable=1;locked=0;connectable=1;strokeColor=#8F8F8F;align=center;fontFamily=Helvetica;fontColor=default;fillColor=#E6E6E6;" parent="1" vertex="1">
          <mxGeometry x="4295" y="1460" width="300" height="145" as="geometry" />
        </mxCell>
        <mxCell id="Efgqmvd8i2EMckIcJvgt-23" style="edgeStyle=orthogonalEdgeStyle;rounded=0;orthogonalLoop=1;jettySize=auto;html=1;exitX=0;exitY=0.5;exitDx=0;exitDy=0;entryX=1;entryY=0.25;entryDx=0;entryDy=0;movable=1;resizable=1;rotatable=1;deletable=1;editable=1;locked=0;connectable=1;" parent="1" source="7OVlWc0CsFkuMIYYxnUI-128" target="7OVlWc0CsFkuMIYYxnUI-124" edge="1">
          <mxGeometry relative="1" as="geometry">
            <Array as="points">
              <mxPoint x="4845" y="246" />
              <mxPoint x="4845" y="1496" />
            </Array>
            <mxPoint x="4585" y="1420" as="targetPoint" />
          </mxGeometry>
        </mxCell>
        <mxCell id="Efgqmvd8i2EMckIcJvgt-24" value="Schreibt Daten&amp;nbsp;&lt;div&gt;mit Telegraf (z.B. Auslastung)&lt;/div&gt;" style="edgeLabel;html=1;align=center;verticalAlign=middle;resizable=1;points=[];movable=1;rotatable=1;deletable=1;editable=1;locked=0;connectable=1;" parent="Efgqmvd8i2EMckIcJvgt-23" connectable="0" vertex="1">
          <mxGeometry x="-0.7477" y="-3" relative="1" as="geometry">
            <mxPoint x="23" y="3" as="offset" />
          </mxGeometry>
        </mxCell>
        <mxCell id="Efgqmvd8i2EMckIcJvgt-25" style="edgeStyle=orthogonalEdgeStyle;rounded=0;orthogonalLoop=1;jettySize=auto;html=1;exitX=0;exitY=0.5;exitDx=0;exitDy=0;entryX=1;entryY=0.5;entryDx=0;entryDy=0;movable=1;resizable=1;rotatable=1;deletable=1;editable=1;locked=0;connectable=1;" parent="1" source="7OVlWc0CsFkuMIYYxnUI-129" target="7OVlWc0CsFkuMIYYxnUI-124" edge="1">
          <mxGeometry relative="1" as="geometry">
            <mxPoint x="4585" y="1443" as="targetPoint" />
          </mxGeometry>
        </mxCell>
        <mxCell id="Efgqmvd8i2EMckIcJvgt-27" value="schreibt Daten&amp;nbsp;&lt;div&gt;mit Telegraf und Jmeter&lt;/div&gt;" style="edgeLabel;html=1;align=center;verticalAlign=middle;resizable=1;points=[];movable=1;rotatable=1;deletable=1;editable=1;locked=0;connectable=1;" parent="Efgqmvd8i2EMckIcJvgt-25" connectable="0" vertex="1">
          <mxGeometry x="-0.6442" y="-2" relative="1" as="geometry">
            <mxPoint x="9" y="2" as="offset" />
          </mxGeometry>
        </mxCell>
        <mxCell id="Efgqmvd8i2EMckIcJvgt-26" style="edgeStyle=orthogonalEdgeStyle;rounded=0;orthogonalLoop=1;jettySize=auto;html=1;entryX=0.997;entryY=0.828;entryDx=0;entryDy=0;entryPerimeter=0;movable=1;resizable=1;rotatable=1;deletable=1;editable=1;locked=0;connectable=1;" parent="1" source="Efgqmvd8i2EMckIcJvgt-2" target="7OVlWc0CsFkuMIYYxnUI-124" edge="1">
          <mxGeometry relative="1" as="geometry">
            <mxPoint x="4585" y="1470" as="targetPoint" />
            <Array as="points">
              <mxPoint x="4975" y="900" />
              <mxPoint x="4975" y="1580" />
            </Array>
          </mxGeometry>
        </mxCell>
        <mxCell id="GrYR2SbkgFIPCk1hRJQ1-8" value="schreibt Daten&amp;nbsp;&lt;div&gt;mit Telegraf und Jmeter&lt;/div&gt;" style="edgeLabel;html=1;align=center;verticalAlign=middle;resizable=1;points=[];movable=1;rotatable=1;deletable=1;editable=1;locked=0;connectable=1;" parent="Efgqmvd8i2EMckIcJvgt-26" connectable="0" vertex="1">
          <mxGeometry x="-0.6196" y="-2" relative="1" as="geometry">
            <mxPoint x="-1" y="2" as="offset" />
          </mxGeometry>
        </mxCell>
        <mxCell id="oH4TG-YbMOmBQOoqMi1V-1" style="edgeStyle=orthogonalEdgeStyle;rounded=0;orthogonalLoop=1;jettySize=auto;html=1;exitX=0;exitY=0.75;exitDx=0;exitDy=0;movable=1;resizable=1;rotatable=1;deletable=1;editable=1;locked=0;connectable=1;" edge="1" parent="1" source="7OVlWc0CsFkuMIYYxnUI-110" target="1kscTgb3eFn9fxUTIaNH-1">
          <mxGeometry relative="1" as="geometry" />
        </mxCell>
        <mxCell id="oH4TG-YbMOmBQOoqMi1V-3" value="&lt;b&gt;Ingres: api&lt;/b&gt;" style="whiteSpace=wrap;html=1;fillColor=#9ab0ab;strokeColor=default;rotation=0;fontSize=12;rounded=1;arcSize=9;movable=1;resizable=1;rotatable=1;deletable=1;editable=1;locked=0;connectable=1;" vertex="1" parent="1">
          <mxGeometry x="4520" y="-119" width="160" height="40" as="geometry" />
        </mxCell>
        <mxCell id="oH4TG-YbMOmBQOoqMi1V-4" value="&lt;span style=&quot;font-size: 16px;&quot;&gt;&lt;b&gt;Helm Chart: xnginx-ingress&lt;/b&gt;&lt;/span&gt;" style="whiteSpace=wrap;html=1;rounded=1;arcSize=2;verticalAlign=top;fontSize=12;movable=1;resizable=1;rotatable=1;deletable=1;editable=1;locked=0;connectable=1;strokeColor=#6c8ebf;align=center;fontFamily=Helvetica;fillColor=#dae8fc;" vertex="1" parent="1">
          <mxGeometry x="3382" y="210" width="503" height="280" as="geometry" />
        </mxCell>
        <mxCell id="oH4TG-YbMOmBQOoqMi1V-8" style="edgeStyle=orthogonalEdgeStyle;rounded=0;orthogonalLoop=1;jettySize=auto;html=1;exitX=0;exitY=0.5;exitDx=0;exitDy=0;movable=1;resizable=1;rotatable=1;deletable=1;editable=1;locked=0;connectable=1;" edge="1" parent="1" source="oH4TG-YbMOmBQOoqMi1V-6">
          <mxGeometry relative="1" as="geometry">
            <mxPoint x="5195" y="1200" as="targetPoint" />
          </mxGeometry>
        </mxCell>
        <mxCell id="oH4TG-YbMOmBQOoqMi1V-6" value="&lt;b style=&quot;font-size: 16px;&quot;&gt;Integration Tests&lt;/b&gt;" style="whiteSpace=wrap;html=1;rounded=1;arcSize=3;verticalAlign=top;movable=1;resizable=1;rotatable=1;deletable=1;editable=1;locked=0;connectable=1;" vertex="1" parent="1">
          <mxGeometry x="5435" y="1505" width="400" height="235" as="geometry" />
        </mxCell>
        <mxCell id="oH4TG-YbMOmBQOoqMi1V-7" value="&lt;b style=&quot;font-size: 16px;&quot;&gt;Test Pod 1..n&lt;/b&gt;" style="whiteSpace=wrap;html=1;fillColor=#d9e5cd;strokeColor=default;rounded=1;arcSize=3;verticalAlign=top;movable=1;resizable=1;rotatable=1;deletable=1;editable=1;locked=0;connectable=1;" vertex="1" parent="1">
          <mxGeometry x="5495" y="1580" width="280" height="100" as="geometry" />
        </mxCell>
        <mxCell id="oH4TG-YbMOmBQOoqMi1V-13" style="edgeStyle=orthogonalEdgeStyle;rounded=0;orthogonalLoop=1;jettySize=auto;html=1;exitX=1;exitY=0.5;exitDx=0;exitDy=0;movable=1;resizable=1;rotatable=1;deletable=1;editable=1;locked=0;connectable=1;" edge="1" parent="1" source="oH4TG-YbMOmBQOoqMi1V-9">
          <mxGeometry relative="1" as="geometry">
            <mxPoint x="3695" y="1200" as="targetPoint" />
          </mxGeometry>
        </mxCell>
        <mxCell id="oH4TG-YbMOmBQOoqMi1V-9" value="&lt;b style=&quot;font-size: 16px;&quot;&gt;Manifest: Pod Disruption Budgets&lt;/b&gt;" style="whiteSpace=wrap;html=1;fillColor=#d9e5cd;strokeColor=default;rounded=1;arcSize=3;verticalAlign=top;movable=1;resizable=1;rotatable=1;deletable=1;editable=1;locked=0;connectable=1;" vertex="1" parent="1">
          <mxGeometry x="2655" y="1810" width="400" height="100" as="geometry" />
        </mxCell>
        <mxCell id="oH4TG-YbMOmBQOoqMi1V-14" style="edgeStyle=orthogonalEdgeStyle;rounded=0;orthogonalLoop=1;jettySize=auto;html=1;exitX=1;exitY=0.5;exitDx=0;exitDy=0;movable=1;resizable=1;rotatable=1;deletable=1;editable=1;locked=0;connectable=1;" edge="1" parent="1" source="oH4TG-YbMOmBQOoqMi1V-11">
          <mxGeometry relative="1" as="geometry">
            <mxPoint x="3755" y="1200" as="targetPoint" />
          </mxGeometry>
        </mxCell>
        <mxCell id="oH4TG-YbMOmBQOoqMi1V-11" value="&lt;b style=&quot;font-size: 16px;&quot;&gt;Manifest: Roles&lt;/b&gt;" style="whiteSpace=wrap;html=1;fillColor=#d9e5cd;strokeColor=default;rounded=1;arcSize=3;verticalAlign=top;movable=1;resizable=1;rotatable=1;deletable=1;editable=1;locked=0;connectable=1;" vertex="1" parent="1">
          <mxGeometry x="2655" y="1970" width="400" height="100" as="geometry" />
        </mxCell>
      </root>
    </mxGraphModel>
  </diagram>
</mxfile>
